<svg id="visual" viewBox="0 0 960 540" width="960" height="540" xmlns="http://www.w3.org/2000/svg" xmlns:xlink="http://www.w3.org/1999/xlink" version="1.1"><path d="M0 133L13.3 133.3C26.7 133.7 53.3 134.3 80 133.8C106.7 133.3 133.3 131.7 160 128.7C186.7 125.7 213.3 121.3 240 125C266.7 128.7 293.3 140.3 320 141.5C346.7 142.7 373.3 133.3 400 132.3C426.7 131.3 453.3 138.7 480 139.8C506.7 141 533.3 136 560 133.2C586.7 130.3 613.3 129.7 640 130.7C666.7 131.7 693.3 134.3 720 137.8C746.7 141.3 773.3 145.7 800 148.5C826.7 151.3 853.3 152.7 880 150.3C906.7 148 933.3 142 946.7 139L960 136L960 0L946.7 0C933.3 0 906.7 0 880 0C853.3 0 826.7 0 800 0C773.3 0 746.7 0 720 0C693.3 0 666.7 0 640 0C613.3 0 586.7 0 560 0C533.3 0 506.7 0 480 0C453.3 0 426.7 0 400 0C373.3 0 346.7 0 320 0C293.3 0 266.7 0 240 0C213.3 0 186.7 0 160 0C133.3 0 106.7 0 80 0C53.3 0 26.7 0 13.3 0L0 0Z" fill="#40cac3"></path><path d="M0 111L13.3 112.8C26.7 114.7 53.3 118.3 80 116.3C106.7 114.3 133.3 106.7 160 108.5C186.7 110.3 213.3 121.7 240 122C266.7 122.3 293.3 111.7 320 107.2C346.7 102.7 373.3 104.3 400 110.8C426.7 117.3 453.3 128.7 480 130.8C506.7 133 533.3 126 560 125.7C586.7 125.3 613.3 131.7 640 131.7C666.7 131.7 693.3 125.3 720 118.7C746.7 112 773.3 105 800 108.3C826.7 111.7 853.3 125.3 880 130.2C906.7 135 933.3 131 946.7 129L960 127L960 0L946.7 0C933.3 0 906.7 0 880 0C853.3 0 826.7 0 800 0C773.3 0 746.7 0 720 0C693.3 0 666.7 0 640 0C613.3 0 586.7 0 560 0C533.3 0 506.7 0 480 0C453.3 0 426.7 0 400 0C373.3 0 346.7 0 320 0C293.3 0 266.7 0 240 0C213.3 0 186.7 0 160 0C133.3 0 106.7 0 80 0C53.3 0 26.7 0 13.3 0L0 0Z" fill="#33bfbe"></path><path d="M0 103L13.3 107.2C26.7 111.3 53.3 119.7 80 118.7C106.7 117.7 133.3 107.3 160 106.7C186.7 106 213.3 115 240 117.2C266.7 119.3 293.3 114.7 320 113.2C346.7 111.7 373.3 113.3 400 114.2C426.7 115 453.3 115 480 110C506.7 105 533.3 95 560 92.8C586.7 90.7 613.3 96.3 640 99.2C666.7 102 693.3 102 720 101.3C746.7 100.7 773.3 99.3 800 99.7C826.7 100 853.3 102 880 105.5C906.7 109 933.3 114 946.7 116.5L960 119L960 0L946.7 0C933.3 0 906.7 0 880 0C853.3 0 826.7 0 800 0C773.3 0 746.7 0 720 0C693.3 0 666.7 0 640 0C613.3 0 586.7 0 560 0C533.3 0 506.7 0 480 0C453.3 0 426.7 0 400 0C373.3 0 346.7 0 320 0C293.3 0 266.7 0 240 0C213.3 0 186.7 0 160 0C133.3 0 106.7 0 80 0C53.3 0 26.7 0 13.3 0L0 0Z" fill="#27b4b9"></path><path d="M0 86L13.3 90.3C26.7 94.7 53.3 103.3 80 108C106.7 112.7 133.3 113.3 160 112.8C186.7 112.3 213.3 110.7 240 107.7C266.7 104.7 293.3 100.3 320 95.5C346.7 90.7 373.3 85.3 400 85.7C426.7 86 453.3 92 480 94.3C506.7 96.7 533.3 95.3 560 92C586.7 88.7 613.3 83.3 640 86.2C666.7 89 693.3 100 720 102C746.7 104 773.3 97 800 91.8C826.7 86.7 853.3 83.3 880 83.7C906.7 84 933.3 88 946.7 90L960 92L960 0L946.7 0C933.3 0 906.7 0 880 0C853.3 0 826.7 0 800 0C773.3 0 746.7 0 720 0C693.3 0 666.7 0 640 0C613.3 0 586.7 0 560 0C533.3 0 506.7 0 480 0C453.3 0 426.7 0 400 0C373.3 0 346.7 0 320 0C293.3 0 266.7 0 240 0C213.3 0 186.7 0 160 0C133.3 0 106.7 0 80 0C53.3 0 26.7 0 13.3 0L0 0Z" fill="#1ca9b3"></path><path d="M0 69L13.3 73.5C26.7 78 53.3 87 80 85.7C106.7 84.3 133.3 72.7 160 69C186.7 65.3 213.3 69.7 240 71.8C266.7 74 293.3 74 320 73.5C346.7 73 373.3 72 400 75.3C426.7 78.7 453.3 86.3 480 86.3C506.7 86.3 533.3 78.7 560 76.7C586.7 74.7 613.3 78.3 640 78.5C666.7 78.7 693.3 75.3 720 76.5C746.7 77.7 773.3 83.3 800 81.7C826.7 80 853.3 71 880 71.2C906.7 71.3 933.3 80.7 946.7 85.3L960 90L960 0L946.7 0C933.3 0 906.7 0 880 0C853.3 0 826.7 0 800 0C773.3 0 746.7 0 720 0C693.3 0 666.7 0 640 0C613.3 0 586.7 0 560 0C533.3 0 506.7 0 480 0C453.3 0 426.7 0 400 0C373.3 0 346.7 0 320 0C293.3 0 266.7 0 240 0C213.3 0 186.7 0 160 0C133.3 0 106.7 0 80 0C53.3 0 26.7 0 13.3 0L0 0Z" fill="#129eac"></path><path d="M0 54L13.3 57.3C26.7 60.7 53.3 67.3 80 71.8C106.7 76.3 133.3 78.7 160 77.2C186.7 75.7 213.3 70.3 240 65C266.7 59.7 293.3 54.3 320 51.7C346.7 49 373.3 49 400 51.2C426.7 53.3 453.3 57.7 480 60C506.7 62.3 533.3 62.7 560 61.3C586.7 60 613.3 57 640 59.2C666.7 61.3 693.3 68.7 720 69.8C746.7 71 773.3 66 800 62.8C826.7 59.7 853.3 58.3 880 58C906.7 57.7 933.3 58.3 946.7 58.7L960 59L960 0L946.7 0C933.3 0 906.7 0 880 0C853.3 0 826.7 0 800 0C773.3 0 746.7 0 720 0C693.3 0 666.7 0 640 0C613.3 0 586.7 0 560 0C533.3 0 506.7 0 480 0C453.3 0 426.7 0 400 0C373.3 0 346.7 0 320 0C293.3 0 266.7 0 240 0C213.3 0 186.7 0 160 0C133.3 0 106.7 0 80 0C53.3 0 26.7 0 13.3 0L0 0Z" fill="#0a94a6"></path><path d="M0 58L13.3 55.7C26.7 53.3 53.3 48.7 80 46.8C106.7 45 133.3 46 160 47.5C186.7 49 213.3 51 240 54.5C266.7 58 293.3 63 320 61.7C346.7 60.3 373.3 52.7 400 52.8C426.7 53 453.3 61 480 63.3C506.7 65.7 533.3 62.3 560 57.7C586.7 53 613.3 47 640 48C666.7 49 693.3 57 720 56.2C746.7 55.3 773.3 45.7 800 45.7C826.7 45.7 853.3 55.3 880 56.3C906.7 57.3 933.3 49.7 946.7 45.8L960 42L960 0L946.7 0C933.3 0 906.7 0 880 0C853.3 0 826.7 0 800 0C773.3 0 746.7 0 720 0C693.3 0 666.7 0 640 0C613.3 0 586.7 0 560 0C533.3 0 506.7 0 480 0C453.3 0 426.7 0 400 0C373.3 0 346.7 0 320 0C293.3 0 266.7 0 240 0C213.3 0 186.7 0 160 0C133.3 0 106.7 0 80 0C53.3 0 26.7 0 13.3 0L0 0Z" fill="#06899e"></path><path d="M0 41L13.3 42.7C26.7 44.3 53.3 47.7 80 49.2C106.7 50.7 133.3 50.3 160 48.7C186.7 47 213.3 44 240 43.7C266.7 43.3 293.3 45.7 320 47.3C346.7 49 373.3 50 400 50.7C426.7 51.3 453.3 51.7 480 49.3C506.7 47 533.3 42 560 37.8C586.7 33.7 613.3 30.3 640 28.8C666.7 27.3 693.3 27.7 720 29.5C746.7 31.3 773.3 34.7 800 38.3C826.7 42 853.3 46 880 48.7C906.7 51.3 933.3 52.7 946.7 53.3L960 54L960 0L946.7 0C933.3 0 906.7 0 880 0C853.3 0 826.7 0 800 0C773.3 0 746.7 0 720 0C693.3 0 666.7 0 640 0C613.3 0 586.7 0 560 0C533.3 0 506.7 0 480 0C453.3 0 426.7 0 400 0C373.3 0 346.7 0 320 0C293.3 0 266.7 0 240 0C213.3 0 186.7 0 160 0C133.3 0 106.7 0 80 0C53.3 0 26.7 0 13.3 0L0 0Z" fill="#067f96"></path><path d="M0 37L13.3 35.3C26.7 33.7 53.3 30.3 80 30.5C106.7 30.7 133.3 34.3 160 34.8C186.7 35.3 213.3 32.7 240 32.8C266.7 33 293.3 36 320 35.7C346.7 35.3 373.3 31.7 400 28.3C426.7 25 453.3 22 480 20.2C506.7 18.3 533.3 17.7 560 18.5C586.7 19.3 613.3 21.7 640 23.7C666.7 25.7 693.3 27.3 720 28.5C746.7 29.7 773.3 30.3 800 29.7C826.7 29 853.3 27 880 28C906.7 29 933.3 33 946.7 35L960 37L960 0L946.7 0C933.3 0 906.7 0 880 0C853.3 0 826.7 0 800 0C773.3 0 746.7 0 720 0C693.3 0 666.7 0 640 0C613.3 0 586.7 0 560 0C533.3 0 506.7 0 480 0C453.3 0 426.7 0 400 0C373.3 0 346.7 0 320 0C293.3 0 266.7 0 240 0C213.3 0 186.7 0 160 0C133.3 0 106.7 0 80 0C53.3 0 26.7 0 13.3 0L0 0Z" fill="#09748e"></path><path d="M0 2L13.3 2.5C26.7 3 53.3 4 80 5.3C106.7 6.7 133.3 8.3 160 10.3C186.7 12.3 213.3 14.7 240 13.7C266.7 12.7 293.3 8.3 320 5.7C346.7 3 373.3 2 400 4.7C426.7 7.3 453.3 13.7 480 14.5C506.7 15.3 533.3 10.7 560 9.2C586.7 7.7 613.3 9.3 640 9C666.7 8.7 693.3 6.3 720 5C746.7 3.7 773.3 3.3 800 5.8C826.7 8.3 853.3 13.7 880 13.5C906.7 13.3 933.3 7.7 946.7 4.8L960 2L960 0L946.7 0C933.3 0 906.7 0 880 0C853.3 0 826.7 0 800 0C773.3 0 746.7 0 720 0C693.3 0 666.7 0 640 0C613.3 0 586.7 0 560 0C533.3 0 506.7 0 480 0C453.3 0 426.7 0 400 0C373.3 0 346.7 0 320 0C293.3 0 266.7 0 240 0C213.3 0 186.7 0 160 0C133.3 0 106.7 0 80 0C53.3 0 26.7 0 13.3 0L0 0Z" fill="#0d6a85"></path></svg>