<svg id="visual" viewBox="0 0 960 540" width="960" height="540" xmlns="http://www.w3.org/2000/svg" xmlns:xlink="http://www.w3.org/1999/xlink" version="1.1"><path d="M0 405L13.3 404.7C26.7 404.3 53.3 403.7 80 404.2C106.7 404.7 133.3 406.3 160 409.3C186.7 412.3 213.3 416.7 240 413C266.7 409.3 293.3 397.7 320 396.5C346.7 395.3 373.3 404.7 400 405.7C426.7 406.7 453.3 399.3 480 398.2C506.7 397 533.3 402 560 404.8C586.7 407.7 613.3 408.3 640 407.3C666.7 406.3 693.3 403.7 720 400.2C746.7 396.7 773.3 392.3 800 389.5C826.7 386.7 853.3 385.3 880 387.7C906.7 390 933.3 396 946.7 399L960 402L960 541L946.7 541C933.3 541 906.7 541 880 541C853.3 541 826.7 541 800 541C773.3 541 746.7 541 720 541C693.3 541 666.7 541 640 541C613.3 541 586.7 541 560 541C533.3 541 506.7 541 480 541C453.3 541 426.7 541 400 541C373.3 541 346.7 541 320 541C293.3 541 266.7 541 240 541C213.3 541 186.7 541 160 541C133.3 541 106.7 541 80 541C53.3 541 26.7 541 13.3 541L0 541Z" fill="#40cac3"></path><path d="M0 427L13.3 425.2C26.7 423.3 53.3 419.7 80 421.7C106.7 423.7 133.3 431.3 160 429.5C186.7 427.7 213.3 416.3 240 416C266.7 415.7 293.3 426.3 320 430.8C346.7 435.3 373.3 433.7 400 427.2C426.7 420.7 453.3 409.3 480 407.2C506.7 405 533.3 412 560 412.3C586.7 412.7 613.3 406.3 640 406.3C666.7 406.3 693.3 412.7 720 419.3C746.7 426 773.3 433 800 429.7C826.7 426.3 853.3 412.7 880 407.8C906.7 403 933.3 407 946.7 409L960 411L960 541L946.7 541C933.3 541 906.7 541 880 541C853.3 541 826.7 541 800 541C773.3 541 746.7 541 720 541C693.3 541 666.7 541 640 541C613.3 541 586.7 541 560 541C533.3 541 506.7 541 480 541C453.3 541 426.7 541 400 541C373.3 541 346.7 541 320 541C293.3 541 266.7 541 240 541C213.3 541 186.7 541 160 541C133.3 541 106.7 541 80 541C53.3 541 26.7 541 13.3 541L0 541Z" fill="#33bfbe"></path><path d="M0 435L13.3 430.8C26.7 426.7 53.3 418.3 80 419.3C106.7 420.3 133.3 430.7 160 431.3C186.7 432 213.3 423 240 420.8C266.7 418.7 293.3 423.3 320 424.8C346.7 426.3 373.3 424.7 400 423.8C426.7 423 453.3 423 480 428C506.7 433 533.3 443 560 445.2C586.7 447.3 613.3 441.7 640 438.8C666.7 436 693.3 436 720 436.7C746.7 437.3 773.3 438.7 800 438.3C826.7 438 853.3 436 880 432.5C906.7 429 933.3 424 946.7 421.5L960 419L960 541L946.7 541C933.3 541 906.7 541 880 541C853.3 541 826.7 541 800 541C773.3 541 746.7 541 720 541C693.3 541 666.7 541 640 541C613.3 541 586.7 541 560 541C533.3 541 506.7 541 480 541C453.3 541 426.7 541 400 541C373.3 541 346.7 541 320 541C293.3 541 266.7 541 240 541C213.3 541 186.7 541 160 541C133.3 541 106.7 541 80 541C53.3 541 26.7 541 13.3 541L0 541Z" fill="#27b4b9"></path><path d="M0 452L13.3 447.7C26.7 443.3 53.3 434.7 80 430C106.7 425.3 133.3 424.7 160 425.2C186.7 425.7 213.3 427.3 240 430.3C266.7 433.3 293.3 437.7 320 442.5C346.7 447.3 373.3 452.7 400 452.3C426.7 452 453.3 446 480 443.7C506.7 441.3 533.3 442.7 560 446C586.7 449.3 613.3 454.7 640 451.8C666.7 449 693.3 438 720 436C746.7 434 773.3 441 800 446.2C826.7 451.3 853.3 454.7 880 454.3C906.7 454 933.3 450 946.7 448L960 446L960 541L946.7 541C933.3 541 906.7 541 880 541C853.3 541 826.7 541 800 541C773.3 541 746.7 541 720 541C693.3 541 666.7 541 640 541C613.3 541 586.7 541 560 541C533.3 541 506.7 541 480 541C453.3 541 426.7 541 400 541C373.3 541 346.7 541 320 541C293.3 541 266.7 541 240 541C213.3 541 186.7 541 160 541C133.3 541 106.7 541 80 541C53.3 541 26.7 541 13.3 541L0 541Z" fill="#1ca9b3"></path><path d="M0 469L13.3 464.5C26.7 460 53.3 451 80 452.3C106.7 453.7 133.3 465.3 160 469C186.7 472.7 213.3 468.3 240 466.2C266.7 464 293.3 464 320 464.5C346.7 465 373.3 466 400 462.7C426.7 459.3 453.3 451.7 480 451.7C506.7 451.7 533.3 459.3 560 461.3C586.7 463.3 613.3 459.7 640 459.5C666.7 459.3 693.3 462.7 720 461.5C746.7 460.3 773.3 454.7 800 456.3C826.7 458 853.3 467 880 466.8C906.7 466.7 933.3 457.3 946.7 452.7L960 448L960 541L946.7 541C933.3 541 906.7 541 880 541C853.3 541 826.7 541 800 541C773.3 541 746.7 541 720 541C693.3 541 666.7 541 640 541C613.3 541 586.7 541 560 541C533.3 541 506.7 541 480 541C453.3 541 426.7 541 400 541C373.3 541 346.7 541 320 541C293.3 541 266.7 541 240 541C213.3 541 186.7 541 160 541C133.3 541 106.7 541 80 541C53.3 541 26.7 541 13.3 541L0 541Z" fill="#129eac"></path><path d="M0 484L13.3 480.7C26.7 477.3 53.3 470.7 80 466.2C106.7 461.7 133.3 459.3 160 460.8C186.7 462.3 213.3 467.7 240 473C266.7 478.3 293.3 483.7 320 486.3C346.7 489 373.3 489 400 486.8C426.7 484.7 453.3 480.3 480 478C506.7 475.7 533.3 475.3 560 476.7C586.7 478 613.3 481 640 478.8C666.7 476.7 693.3 469.3 720 468.2C746.7 467 773.3 472 800 475.2C826.7 478.3 853.3 479.7 880 480C906.7 480.3 933.3 479.7 946.7 479.3L960 479L960 541L946.7 541C933.3 541 906.7 541 880 541C853.3 541 826.7 541 800 541C773.3 541 746.7 541 720 541C693.3 541 666.7 541 640 541C613.3 541 586.7 541 560 541C533.3 541 506.7 541 480 541C453.3 541 426.7 541 400 541C373.3 541 346.7 541 320 541C293.3 541 266.7 541 240 541C213.3 541 186.7 541 160 541C133.3 541 106.7 541 80 541C53.3 541 26.7 541 13.3 541L0 541Z" fill="#0a94a6"></path><path d="M0 480L13.3 482.3C26.7 484.7 53.3 489.3 80 491.2C106.7 493 133.3 492 160 490.5C186.7 489 213.3 487 240 483.5C266.7 480 293.3 475 320 476.3C346.7 477.7 373.3 485.3 400 485.2C426.7 485 453.3 477 480 474.7C506.7 472.3 533.3 475.7 560 480.3C586.7 485 613.3 491 640 490C666.7 489 693.3 481 720 481.8C746.7 482.7 773.3 492.3 800 492.3C826.7 492.3 853.3 482.7 880 481.7C906.7 480.7 933.3 488.3 946.7 492.2L960 496L960 541L946.7 541C933.3 541 906.7 541 880 541C853.3 541 826.7 541 800 541C773.3 541 746.7 541 720 541C693.3 541 666.7 541 640 541C613.3 541 586.7 541 560 541C533.3 541 506.7 541 480 541C453.3 541 426.7 541 400 541C373.3 541 346.7 541 320 541C293.3 541 266.7 541 240 541C213.3 541 186.7 541 160 541C133.3 541 106.7 541 80 541C53.3 541 26.7 541 13.3 541L0 541Z" fill="#06899e"></path><path d="M0 497L13.3 495.3C26.7 493.7 53.3 490.3 80 488.8C106.7 487.3 133.3 487.7 160 489.3C186.7 491 213.3 494 240 494.3C266.7 494.7 293.3 492.3 320 490.7C346.7 489 373.3 488 400 487.3C426.7 486.7 453.3 486.3 480 488.7C506.7 491 533.3 496 560 500.2C586.7 504.3 613.3 507.7 640 509.2C666.7 510.7 693.3 510.3 720 508.5C746.7 506.7 773.3 503.3 800 499.7C826.7 496 853.3 492 880 489.3C906.7 486.7 933.3 485.3 946.7 484.7L960 484L960 541L946.7 541C933.3 541 906.7 541 880 541C853.3 541 826.7 541 800 541C773.3 541 746.7 541 720 541C693.3 541 666.7 541 640 541C613.3 541 586.7 541 560 541C533.3 541 506.7 541 480 541C453.3 541 426.7 541 400 541C373.3 541 346.7 541 320 541C293.3 541 266.7 541 240 541C213.3 541 186.7 541 160 541C133.3 541 106.7 541 80 541C53.3 541 26.7 541 13.3 541L0 541Z" fill="#067f96"></path><path d="M0 501L13.3 502.7C26.7 504.3 53.3 507.7 80 507.5C106.7 507.3 133.3 503.7 160 503.2C186.7 502.7 213.3 505.3 240 505.2C266.7 505 293.3 502 320 502.3C346.7 502.7 373.3 506.3 400 509.7C426.7 513 453.3 516 480 517.8C506.7 519.7 533.3 520.3 560 519.5C586.7 518.7 613.3 516.3 640 514.3C666.7 512.3 693.3 510.7 720 509.5C746.7 508.3 773.3 507.7 800 508.3C826.7 509 853.3 511 880 510C906.7 509 933.3 505 946.7 503L960 501L960 541L946.7 541C933.3 541 906.7 541 880 541C853.3 541 826.7 541 800 541C773.3 541 746.7 541 720 541C693.3 541 666.7 541 640 541C613.3 541 586.7 541 560 541C533.3 541 506.7 541 480 541C453.3 541 426.7 541 400 541C373.3 541 346.7 541 320 541C293.3 541 266.7 541 240 541C213.3 541 186.7 541 160 541C133.3 541 106.7 541 80 541C53.3 541 26.7 541 13.3 541L0 541Z" fill="#09748e"></path><path d="M0 536L13.3 535.5C26.7 535 53.3 534 80 532.7C106.7 531.3 133.3 529.7 160 527.7C186.7 525.7 213.3 523.3 240 524.3C266.7 525.3 293.3 529.7 320 532.3C346.7 535 373.3 536 400 533.3C426.7 530.7 453.3 524.3 480 523.5C506.7 522.7 533.3 527.3 560 528.8C586.7 530.3 613.3 528.7 640 529C666.7 529.3 693.3 531.7 720 533C746.7 534.3 773.3 534.7 800 532.2C826.7 529.7 853.3 524.3 880 524.5C906.7 524.7 933.3 530.3 946.7 533.2L960 536L960 541L946.7 541C933.3 541 906.7 541 880 541C853.3 541 826.7 541 800 541C773.3 541 746.7 541 720 541C693.3 541 666.7 541 640 541C613.3 541 586.7 541 560 541C533.3 541 506.7 541 480 541C453.3 541 426.7 541 400 541C373.3 541 346.7 541 320 541C293.3 541 266.7 541 240 541C213.3 541 186.7 541 160 541C133.3 541 106.7 541 80 541C53.3 541 26.7 541 13.3 541L0 541Z" fill="#0d6a85"></path></svg>