<svg id="visual" viewBox="0 0 960 540" width="960" height="540" xmlns="http://www.w3.org/2000/svg" xmlns:xlink="http://www.w3.org/1999/xlink" version="1.1"><path d="M0 371L20 377C40 383 80 395 120 398.7C160 402.3 200 397.7 240 389.2C280 380.7 320 368.3 360 368C400 367.7 440 379.3 480 381.7C520 384 560 377 600 371.7C640 366.3 680 362.7 720 367.7C760 372.7 800 386.3 840 392.3C880 398.3 920 396.7 940 395.8L960 395L960 541L940 541C920 541 880 541 840 541C800 541 760 541 720 541C680 541 640 541 600 541C560 541 520 541 480 541C440 541 400 541 360 541C320 541 280 541 240 541C200 541 160 541 120 541C80 541 40 541 20 541L0 541Z" fill="#0f172a" stroke-linecap="round" stroke-linejoin="miter"></path></svg>